<svg xmlns="http://www.w3.org/2000/svg" xmlns:xlink="http://www.w3.org/1999/xlink" version="1.1" x="0px" y="0px" viewBox="0 0 100 125" style="enable-background:new 0 0 100 100;" xml:space="preserve"><g><path d="M73.9,72.5L54.3,52.9c5.7-6.4,5.4-16.2-0.7-22.3c-6.4-6.4-16.7-6.4-23.1,0c-6.4,6.4-6.4,16.7,0,23.1   c3.2,3.2,7.4,4.8,11.5,4.8c3.9,0,7.7-1.4,10.8-4.1l19.6,19.6c0.2,0.2,0.5,0.3,0.7,0.3s0.5-0.1,0.7-0.3   C74.3,73.5,74.3,72.9,73.9,72.5z M32,52.2c-5.6-5.6-5.6-14.6,0-20.2c2.8-2.8,6.4-4.2,10.1-4.2s7.3,1.4,10.1,4.2   c5.6,5.6,5.6,14.6,0,20.2C46.6,57.8,37.6,57.8,32,52.2z"/></g></svg>
